<svg xmlns="http://www.w3.org/2000/svg" xmlns:xlink="http://www.w3.org/1999/xlink" viewBox="0,0,256,256" width="480px" height="480px" fill-rule="nonzero"><g fill="#ffc462" fill-rule="nonzero" stroke="none" stroke-width="1" stroke-linecap="butt" stroke-linejoin="miter" stroke-miterlimit="10" stroke-dasharray="" stroke-dashoffset="0" font-family="none" font-weight="none" font-size="none" text-anchor="none" style="mix-blend-mode: normal"><g transform="scale(5.33333,5.33333)"><path d="M12.30078,0c-0.98197,0 -1.79883,0.81881 -1.79883,1.80078v2.05078c-0.64674,0.2804 -1.2489,0.62883 -1.80469,1.04492l-1.7793,-1.02734c-0.00065,0 -0.0013,0 -0.00195,0c-0.84984,-0.49037 -1.96579,-0.19129 -2.45703,0.6582l-1.70117,2.94531c-0.49065,0.85031 -0.19044,1.96817 0.66016,2.45898l1.69531,0.97656c-0.04486,0.36207 -0.11328,0.71777 -0.11328,1.0918c0,0.37375 0.06877,0.72844 0.11328,1.08984l-1.69727,0.97851c-0.85059,0.49081 -1.14885,1.60867 -0.6582,2.45899l1.69922,2.94531c0.49081,0.85059 1.60867,1.14886 2.45898,0.6582l1.78125,-1.02734c0.55547,0.41568 1.15537,0.76283 1.80078,1.04297v2.05273c0,0.98197 0.81881,1.80078 1.80078,1.80078h3.40039c0.98197,0 1.79883,-0.81881 1.79883,-1.80078v-2.05078c0.64664,-0.28037 1.24676,-0.62875 1.80273,-1.04492l1.78125,1.02734c0.85031,0.49065 1.96817,0.19239 2.45898,-0.6582l1.69922,-2.94336v-0.00195c0.49133,-0.84995 0.19179,-1.96852 -0.6582,-2.45899l-1.69531,-0.97656c0.04486,-0.36207 0.11328,-0.71777 0.11328,-1.0918c0,-0.37375 -0.06877,-0.72844 -0.11328,-1.08984l1.69727,-0.97852c0.85059,-0.49081 1.14885,-1.60867 0.6582,-2.45898l-1.69922,-2.94531c-0.49081,-0.85059 -1.60867,-1.14885 -2.45898,-0.6582l-1.78125,1.02734c-0.55547,-0.41568 -1.15537,-0.76283 -1.80078,-1.04297v-2.05273c0,-0.98197 -0.81881,-1.80078 -1.80078,-1.80078zM12.50195,2h3v2.4043c0.00005,0.43109 0.27634,0.81363 0.68555,0.94922c0.92189,0.30381 1.75904,0.79544 2.4707,1.43164c0.32179,0.28781 0.79195,0.33663 1.16602,0.12109l2.08594,-1.20508l1.50195,2.59766l-2.08008,1.19922c-0.37304,0.21582 -0.56586,0.64634 -0.47852,1.06836c0.0958,0.46405 0.14648,0.94383 0.14648,1.43359c0,0.48976 -0.052,0.96875 -0.14844,1.43164c-0.0879,0.42311 0.10589,0.85482 0.48047,1.07031l2.07813,1.19922l-1.50195,2.59766l-2.08594,-1.20508c-0.37407,-0.21554 -0.84422,-0.16671 -1.16602,0.12109c-0.71197,0.63647 -1.54806,1.12787 -2.4707,1.43164c-0.40998,0.13491 -0.68717,0.51761 -0.6875,0.94922v2.4043h-3v-2.4043c-0.00005,-0.43109 -0.27634,-0.81363 -0.68555,-0.94922c-0.92189,-0.30381 -1.75904,-0.79544 -2.4707,-1.43164c-0.32179,-0.28781 -0.79195,-0.33663 -1.16602,-0.12109l-2.08594,1.20508l-1.50195,-2.59766l2.08008,-1.19922c0.37304,-0.21582 0.56586,-0.64634 0.47852,-1.06836c-0.0958,-0.46405 -0.14648,-0.94383 -0.14648,-1.43359c0,-0.48976 0.052,-0.96875 0.14844,-1.43164c0.0879,-0.42311 -0.10589,-0.85482 -0.48047,-1.07031l-2.07812,-1.19922l1.5,-2.59766l2.08789,1.20508c0.37407,0.21554 0.84422,0.16671 1.16602,-0.12109c0.71197,-0.63647 1.54518,-1.12786 2.46875,-1.43164c0.41076,-0.13423 0.68884,-0.51709 0.68945,-0.94922zM14,8c-1.25,0 -2.31477,0.50476 -2.99805,1.27344c-0.68327,0.76868 -1.00195,1.75434 -1.00195,2.72656c0,0.97222 0.31868,1.95788 1.00195,2.72656c0.68327,0.76868 1.74805,1.27344 2.99805,1.27344c1.25,0 2.31477,-0.50476 2.99805,-1.27344c0.68327,-0.76868 1.00195,-1.75434 1.00195,-2.72656c0,-0.97222 -0.31868,-1.95788 -1.00195,-2.72656c-0.68327,-0.76868 -1.74805,-1.27344 -2.99805,-1.27344zM14,10c0.75,0 1.18523,0.24524 1.50195,0.60156c0.31673,0.35632 0.49805,0.87066 0.49805,1.39844c0,0.52778 -0.18132,1.04212 -0.49805,1.39844c-0.31673,0.35632 -0.75195,0.60156 -1.50195,0.60156c-0.75,0 -1.18523,-0.24524 -1.50195,-0.60156c-0.31673,-0.35632 -0.49805,-0.87066 -0.49805,-1.39844c0,-0.52778 0.18132,-1.04212 0.49805,-1.39844c0.31673,-0.35632 0.75195,-0.60156 1.50195,-0.60156zM30.50195,17.98438c-1.36906,0 -2.5,1.13094 -2.5,2.5v2.33203c-1.02789,0.40653 -1.96882,0.95569 -2.81445,1.63281l-2.02539,-1.16992c-1.18565,-0.6846 -2.73145,-0.27152 -3.41602,0.91406l-1.5,2.59766c-0.6846,1.18565 -0.26957,2.73145 0.91602,3.41602l2.01953,1.16602c-0.08256,0.53507 -0.18164,1.06439 -0.18164,1.62695c0,0.56328 0.09931,1.09338 0.18164,1.62891l-2.02148,1.16602c-1.18498,0.68422 -1.5988,2.22674 -0.91602,3.41211c0,0.00065 0,0.0013 0,0.00195l1.5,2.59766c0.68456,1.18559 2.23037,1.59866 3.41602,0.91406l2.02539,-1.16992c0.84518,0.67675 1.78525,1.22634 2.8125,1.63281v2.33203c0,1.36906 1.13094,2.5 2.5,2.5h3c1.36906,0 2.5,-1.13094 2.5,-2.5v-2.33203c1.02789,-0.40653 1.96882,-0.95569 2.81445,-1.63281l2.02539,1.16992c1.18565,0.6846 2.73145,0.27152 3.41602,-0.91406l1.5,-2.59766c0.6846,-1.18565 0.26957,-2.73145 -0.91602,-3.41602l-2.01953,-1.16602c0.08256,-0.53507 0.18164,-1.06439 0.18164,-1.62695c0,-0.56304 -0.09781,-1.09228 -0.17969,-1.62695l2.01953,-1.16602c1.18559,-0.68456 1.60061,-2.23037 0.91602,-3.41602l-1.5,-2.59766c-0.68456,-1.18558 -2.23037,-1.59866 -3.41602,-0.91406l-2.02539,1.16992c-0.84518,-0.67675 -1.78525,-1.22634 -2.8125,-1.63281v-2.33203c0,-1.36906 -1.13094,-2.5 -2.5,-2.5zM30.50195,19.98438h3c0.28694,0 0.5,0.21306 0.5,0.5v2.97656c0.00028,0.43619 0.28323,0.82189 0.69922,0.95312c1.26746,0.39798 2.41136,1.07685 3.375,1.96094c0.32134,0.29561 0.79731,0.34858 1.17578,0.13086l2.58789,-1.49414c0.24835,-0.1434 0.54016,-0.06677 0.68359,0.18164l1.5,2.59961c0.1434,0.24835 0.06482,0.5382 -0.18359,0.68164l-2.58008,1.49023c-0.37782,0.21729 -0.5714,0.65425 -0.47852,1.08008c0.13929,0.63634 0.21875,1.28772 0.21875,1.95508c0,0.66736 -0.07803,1.31851 -0.21875,1.95313c-0.09417,0.42602 0.09869,0.86392 0.47656,1.08203l2.58008,1.49023c0.24842,0.14344 0.327,0.43329 0.18359,0.68164l-1.5,2.59961c-0.14344,0.24842 -0.43524,0.32504 -0.68359,0.18164l-2.58789,-1.49414c-0.37847,-0.21772 -0.85444,-0.16475 -1.17578,0.13086c-0.96364,0.88409 -2.10754,1.56295 -3.375,1.96094c-0.41676,0.13054 -0.70062,0.5164 -0.70117,0.95312v2.97656c0,0.28694 -0.21306,0.5 -0.5,0.5h-3c-0.28694,0 -0.5,-0.21306 -0.5,-0.5v-2.97656c-0.00028,-0.43619 -0.28323,-0.82189 -0.69922,-0.95312c-1.26746,-0.39798 -2.41136,-1.07685 -3.375,-1.96094c-0.32134,-0.29561 -0.79731,-0.34858 -1.17578,-0.13086l-2.58789,1.49414c-0.24835,0.1434 -0.54016,0.06677 -0.68359,-0.18164l-1.5,-2.59766c-0.14321,-0.24863 -0.06543,-0.53981 0.18359,-0.68359l2.58203,-1.49023c0.37707,-0.21787 0.56981,-0.65469 0.47656,-1.08008c-0.14009,-0.63676 -0.21875,-1.28772 -0.21875,-1.95508c0,-0.66736 0.07803,-1.31851 0.21875,-1.95312c0.09417,-0.42602 -0.09869,-0.86392 -0.47656,-1.08203l-2.58008,-1.49023c-0.24842,-0.14344 -0.327,-0.43329 -0.18359,-0.68164l1.5,-2.59961c0.14344,-0.24842 0.43524,-0.32504 0.68359,-0.18164l2.58789,1.49414c0.37847,0.21772 0.85444,0.16475 1.17578,-0.13086c0.96364,-0.88409 2.10754,-1.56295 3.375,-1.96094c0.41676,-0.13054 0.70062,-0.5164 0.70117,-0.95312v-2.97656c0,-0.28694 0.21306,-0.5 0.5,-0.5zM32,27c-1.91667,0 -3.48144,0.75476 -4.49805,1.89844c-1.01661,1.14368 -1.50195,2.62934 -1.50195,4.10156c0,1.47222 0.48535,2.95788 1.50195,4.10156c1.01661,1.14368 2.58138,1.89844 4.49805,1.89844c3.30186,0 6,-2.69814 6,-6c0,-3.30186 -2.69814,-6 -6,-6zM32,29c2.22099,0 4,1.77902 4,4c0,2.22098 -1.77901,4 -4,4c-1.41667,0 -2.35189,-0.49524 -3.00195,-1.22656c-0.65006,-0.73132 -0.99805,-1.74566 -0.99805,-2.77344c0,-1.02778 0.34799,-2.04212 0.99805,-2.77344c0.65006,-0.73132 1.58529,-1.22656 3.00195,-1.22656z"></path></g></g></svg>